PathFileType	4	(X/Y/Z)	54_2_rein_81_p0_0-782_filt_butterworth.trc
DataRate	CameraRate	NumFrames	NumMarkers	Units	OrigDataRate	OrigDataStartFrame	OrigNumFrames
60.0	60.0	5	27	m	60.0	586	782
Frame#	Time	RHip			RKnee			RAnkle			RBigToe			RSmallToe			RHeel			LHip			LKnee			LAnkle			LBigToe			LSmallToe			LHeel			Neck			Head			Nose			RShoulder			RElbow			RWrist			RThumb			RIndex			RPinky			LShoulder			LElbow			LWrist			LThumb			LIndex			LPinky			
		X1	Y1	Z1	X2	Y2	Z2	X3	Y3	Z3	X4	Y4	Z4	X5	Y5	Z5	X6	Y6	Z6	X7	Y7	Z7	X8	Y8	Z8	X9	Y9	Z9	X10	Y10	Z10	X11	Y11	Z11	X12	Y12	Z12	X13	Y13	Z13	X14	Y14	Z14	X15	Y15	Z15	X16	Y16	Z16	X17	Y17	Z17	X18	Y18	Z18	X19	Y19	Z19	X20	Y20	Z20	X21	Y21	Z21	X22	Y22	Z22	X23	Y23	Z23	X24	Y24	Z24	X25	Y25	Z25	X26	Y26	Z26	X27	Y27	Z27	
586	9.766666666666667	0.2936075804895234	0.9273526614734355	0.5488803933431664	0.29822399175014286	0.4948099605572071	0.5683361758913358	0.2767453472565161	0.05879964497431763	0.6090338770230154	0.2400368805971268	0.08690007328302489	0.37992627719875677	0.3068555653222667	0.08603807484125091	0.386545972581118	0.24961466764154042	0.018616988563781474	0.6460126443491514	0.08373841361744666	0.919306973211809	0.5765071011724928	0.07621662185576011	0.49818164225513484	0.585407420016597	0.0804446489985453	0.0785890151967845	0.568483601025882	0.08214384380102872	0.11509063896703797	0.3562570273809502	0.028669818356350844	0.09536517924730115	0.40634348409643223	0.09603291032579832	0.007077715054722567	0.6263254765097518	0.19192431419316663	1.4720236627387582	0.5547557211302595	0.18648319688598913	1.7152316377547434	0.529362723307494	0.17163069723712793	1.6088715008483088	0.4256056050657371	0.35970656084433195	1.3899649790194102	0.5318563849974405	0.3840601947124235	1.1221627715376916	0.5512199360404957	0.3747093782473875	0.8883085522631826	0.4896096635980472	0.3139245730713156	0.8092540662231537	0.39525583357707333	0.33443358553066327	0.7675183533894625	0.3977232590552083	0.35946259075979625	0.7379862972973349	0.46019448820441905	0.029905745894288335	1.3877696227326377	0.5516509852672928	0.005182599410630633	1.1226404320135237	0.5482478603937765	-0.00011431292448442216	0.8866802965196525	0.4877809172590381	0.021502365957943234	0.8012896095665168	0.4221228590157124	-0.004096903657214916	0.7912641749770845	0.42138589609802984	-0.036236934864561456	0.7850247000584741	0.458552433993129	
587	9.783333333333331	0.29312948699098823	0.9295970285014135	0.5501554247053452	0.298069419276246	0.4966307235310533	0.5683651621700562	0.27672835196455786	0.059004520373910824	0.6090595902721249	0.24087882903507873	0.08668808616178168	0.3794593235345366	0.30743840153633295	0.08682404032448542	0.38417157454762185	0.24919197917847494	0.018974343551488082	0.6456848012386335	0.08354384290665172	0.9211161019478614	0.5769999098608095	0.07637379707720467	0.4991316748215302	0.5856142722481865	0.08044439114321607	0.08006099918250321	0.5671179752317689	0.08227098103769603	0.11569667956849258	0.35680753213378746	0.02852723148715422	0.09468569291774956	0.4059733036387592	0.09564982701012839	0.00822769626361006	0.62511437491663	0.19186648024218855	1.4720467454310127	0.5549014698636399	0.18636794417255054	1.7152626591923839	0.5292722652578553	0.17234533300720736	1.6085420169402085	0.42590075402764016	0.3597043814406604	1.391205290969155	0.5321454381767816	0.3817268872311182	1.1235301124666541	0.5448315171686716	0.363121653664636	0.8951151039585163	0.4744492229669316	0.2939387151922224	0.8211028258545097	0.3829759550193051	0.3107701914218525	0.7814705800101504	0.3852927737042648	0.3382896729332996	0.7494026267881568	0.44419294498098766	0.03053570871546171	1.3875041167203437	0.5496368129344419	0.009351262469007684	1.1202757919813073	0.5386759822443646	0.01314486313300503	0.8928498931891007	0.4700066218869112	0.0414734249763362	0.8117240964421816	0.40244242098063226	0.018961172306219732	0.8032253119606443	0.39316209410101116	-0.016427224884625575	0.7937708866054096	0.4327488511777946	
588	9.8	0.2925010705649257	0.931744129368554	0.5513245993732513	0.2979417322398267	0.49849372321533325	0.5684562308691832	0.27671078496615603	0.059222587501229426	0.6091296507466982	0.24123529235936478	0.08554583602211291	0.3804439929141782	0.3073800374876186	0.08750621389055396	0.38256893919069157	0.2488671436453454	0.0192080110928247	0.6455962143473833	0.08339040747067411	0.9230206011978793	0.5769149127981874	0.0765667128354951	0.5003585045171867	0.5855846143902058	0.08041460486845396	0.08177310768483442	0.565884749158802	0.08226793965037993	0.11646261448191034	0.3579053270417223	0.028043084486104035	0.09328382672070228	0.4067601297203354	0.09525879396792272	0.009405576178892592	0.623896632729815	0.19182836407146697	1.4720689962274296	0.5549657022600843	0.18631494466647103	1.7152556226451965	0.529164394365207	0.17284875157750523	1.608423417775948	0.42613930358672064	0.359716400803765	1.3921484271001758	0.5324685516346861	0.379001312847399	1.124960324154362	0.5378341616221043	0.3506710120344563	0.9029951024894475	0.46073683164315576	0.27364882387717965	0.8320223232158277	0.37560229305425386	0.28594574733860334	0.794131782752888	0.37752837635582753	0.3143450898580138	0.7612186159419374	0.43336321944151185	0.03135935836925252	1.387218514801337	0.5469923175107584	0.01337748909431576	1.1189246454135964	0.5280075972387832	0.025883328724723716	0.9023253445889107	0.4507353327466666	0.06267644581782042	0.8257941627925457	0.3855433430624919	0.04379794626420207	0.815873334794298	0.3671849599496377	0.007479920921733912	0.8036712720517049	0.4081149092303925	
589	9.816666666666666	0.29175086450716675	0.9336991374125725	0.5522536589099716	0.2978644513157709	0.5001681685195228	0.5686212073810025	0.2766927017823228	0.05944780875503768	0.6092533327896255	0.24095781901484717	0.08387918726763532	0.38250559476323176	0.30664656797529904	0.08792343031681747	0.38215879594374486	0.2487055690367074	0.01927700491425403	0.6458060922935472	0.08330735605731622	0.9248747037919508	0.5762593861365013	0.07677894618221524	0.5016049157245303	0.5853970671327731	0.08040413259397455	0.08367557936663686	0.5648356783309474	0.08222547487722515	0.1173462902528383	0.358761941058802	0.027337969465340874	0.09174275997355039	0.4084632029661622	0.09487020896923655	0.010581505410393686	0.6227039093834617	0.19184423259743882	1.4721062596350232	0.5548480831414855	0.18634950140683715	1.7151445558948684	0.5289312932033186	0.17312338441066227	1.6084381529111325	0.42631747435008555	0.3597409087397738	1.3927241232057552	0.532781860045795	0.37606473913836524	1.1263901472791482	0.5307880254955585	0.3378408043043826	0.9119337067565731	0.44870544066200835	0.2527349541685778	0.8427750673226408	0.3727695998625859	0.2603106427306588	0.8052150752372996	0.3739039593647885	0.28815984304824604	0.7732311042997914	0.42717771780210056	0.032266848907847125	1.387061759498982	0.544140010720122	0.016590002417311886	1.1185919457377884	0.5175831155013421	0.037541165905945056	0.914273917501469	0.4312965714631124	0.08437945094153872	0.8431821466930621	0.3709807019236883	0.06909779984635217	0.8281141370244938	0.34598289803014687	0.034176773067350376	0.8137182033546806	0.38606136068494395	
590	9.833333333333334	0.2909142319028497	0.9353843488484543	0.5529300862703453	0.29782360609657144	0.5016025183488396	0.5688241619144746	0.2766744189612413	0.059677355603488	0.609433049643154	0.24019497059858963	0.08250736400834213	0.38474399927720604	0.30539058132213825	0.08797723594460691	0.3829645307325142	0.2487293891198598	0.01917001874301591	0.6463301908083281	0.08327673773420953	0.9264723521991268	0.5751544408384668	0.07696434367868446	0.5025673428776165	0.5851673604249541	0.08046573167658941	0.08567262526027755	0.5640466621762515	0.0822035305432906	0.1182917355541314	0.3590441469667021	0.026553809310833607	0.0905154993511841	0.41075511953062926	0.0944964835446036	0.01171617134453138	0.6215767890653461	0.1919218884688439	1.4721637655180375	0.5545386185536764	0.18644783441109436	1.7149603325792449	0.5285504794080195	0.17328959833529478	1.6084719504351397	0.42648073018957083	0.35976974211637874	1.3930256035951065	0.5330428329358123	0.3731605099925599	1.1279406980492652	0.5242341754602751	0.3251951422850806	0.9224815018743409	0.4375742677038008	0.23212741711284865	0.8545840218549928	0.373785653765218	0.2349511877896244	0.8157860971508141	0.37335870142588623	0.2605029168277161	0.7864944980608548	0.42282529113847184	0.03313147689317704	1.3871520090551175	0.5415327135489717	0.01848371068828337	1.1191071780534696	0.5090686754449691	0.04790033014437449	0.92820010278578	0.4127612386685009	0.10549098743515295	0.8627620427117839	0.35952956918291124	0.09380214033722634	0.8399127576160278	0.3313908543424984	0.06178931781071935	0.8231830598382438	0.3681861559930673	
